<?xml version="1.0" encoding="iso-8859-1"?>
<!-- Generator: Adobe Illustrator 22.1.0, SVG Export Plug-In . SVG Version: 6.00 Build 0)  -->
<svg xmlns="http://www.w3.org/2000/svg" xmlns:xlink="http://www.w3.org/1999/xlink" version="1.1" id="Layer_1_1_" x="0px" y="0px" viewBox="0 0 64 64" style="enable-background:new 0 0 64 64;" xml:space="preserve" width="512" height="512">
<linearGradient id="SVGID_1_" gradientUnits="userSpaceOnUse" x1="32" y1="63" x2="32" y2="1">
	<stop offset="0" style="stop-color:#9F2FFF"/>
	<stop offset="1" style="stop-color:#0BB1D3"/>
</linearGradient>
<path style="fill:url(#SVGID_1_);" d="M58,13h-5V1H1v62h43.449L53,53.38V25h5c2.757,0,5-2.243,5-5v-2C63,15.243,60.757,13,58,13z   M53,18h-7v2h7v3H31v-8h22V18z M29,22.656l-8-2.4v-2.512l8-2.4V22.656z M49.773,54L45,59.37V54H49.773z M47,52h-4v5H25V43h22V52z   M51,52h-2V41H23v18h20v2H3V3h48v10H30l-10.136,3H16c-1.654,0-3,1.346-3,3s1.346,3,3,3h3.853l10.001,3H51V52z M19,20h-3  c-0.552,0-1-0.448-1-1s0.448-1,1-1h3V20z M61,20c0,1.654-1.346,3-3,3h-3v-8h3c1.654,0,3,1.346,3,3V20z M49,7H5V5h44V7z M49,11H5V9  h44V11z M11,15H5v-2h6V15z M11,19H5v-2h6V19z M11,23H5v-2h6V23z M5,57h16v2H5V57z M5,53h16v2H5V53z M5,49h16v2H5V49z M5,45h16v2H5  V45z M5,41h16v2H5V41z M5,37h40v2H5V37z M47,37h2v2h-2V37z M5,33h44v2H5V33z M7,31H5v-2h2V31z M9,29h40v2H9V29z M23,27H5v-2h18V27z"/>
</svg>
