<svg height="496pt" viewBox="0 0 496 496.008" width="496pt" xmlns="http://www.w3.org/2000/svg" xmlns:xlink="http://www.w3.org/1999/xlink"><linearGradient id="a" gradientUnits="userSpaceOnUse" x1="248.004" x2="248.004" y1="496" y2="0"><stop offset="0" stop-color="#9f2fff"/><stop offset="1" stop-color="#0bb1d3"/></linearGradient><path d="m455.523438 244.304688-63.519532-18.320313v-16.105469c8.457032-6.789062 15.144532-15.679687 19.289063-25.878906h4.710937c17.648438 0 32-14.351562 32-32v-56c0-52.9375-43.0625-96-96-96s-96 43.0625-96 96v56c0 17.648438 14.351563 32 32 32h4.710938c4.144531 10.199219 10.832031 19.089844 19.289062 25.878906v16.105469l-63.519531 18.328125c-7.847656 2.261719-15.097656 6.335938-21.242187 11.695312h-187.238282c-22.054687 0-39.99999975 17.945313-39.99999975 40v112c0 22.054688 17.94531275 40 39.99999975 40h62.558594l-5.335938 32h-33.222656v16h160v-16h-33.222656l-5.335938-32h62.558594c22.054688 0 40-17.945312 40-40v-32h-16v32c0 13.230469-10.769531 24-24 24h-65.222656l-8-48h-61.546875l-8 48h-65.230469c-13.230468 0-24-10.769531-24-24v-112.007812c0-13.230469 10.769532-24 24-24h208c13.230469 0 24 10.769531 24 24v64h224v-61.886719c0-24.808593-16.648437-46.929687-40.480468-53.808593zm-294.296876 155.695312 13.328126 80h-61.109376l13.328126-80zm243.386719-153.726562-15.824219 36.910156-24.816406-19.847656 22.34375-22.34375zm11.390625-78.273438h-.550781c.328125-2.625.550781-5.289062.550781-8v-24c8.824219 0 16 7.175781 16 16s-7.175781 16-16 16zm-64-152c44.113282 0 80 35.886719 80 80v28.449219c-4.726562-2.753907-10.144531-4.449219-16-4.449219v-16h-16v15.496094c-15.472656-1.769532-29.800781-8.609375-40.976562-19.792969l-7.023438-7-7.03125 7.007813c-11.167968 11.175781-25.503906 18.015624-40.96875 19.785156v-15.496094h-16v16c-5.855468 0-11.273437 1.695312-16 4.449219v-28.449219c0-44.113281 35.886719-80 80-80zm-64 152c-8.824218 0-16-7.175781-16-16s7.175782-16 16-16v24c0 2.710938.222656 5.375.550782 8zm16-8v-24.375c17.824219-1.648438 34.488282-8.777344 48-20.59375 13.519532 11.808594 30.175782 18.945312 48 20.59375v24.375c0 26.472656-21.527344 48-48 48s-48-21.527344-48-48zm48 64c8.488282 0 16.585938-1.695312 24-4.710938v9.398438l-24 24-24-24v-9.398438c7.417969 3.015626 15.511719 4.710938 24 4.710938zm-34.320312 16.992188 22.34375 22.34375-24.816406 19.847656-15.824219-36.910156zm162.320312 103.007812h-32v-40h-16v40h-144v-48c0-18.097656-12.160156-33.246094-28.679687-38.167969l24.574219-7.089843 24.890624 58.074218 43.214844-34.570312 43.207032 34.570312 24.890624-58.074218 30.984376 8.9375c17.03125 4.914062 28.917968 20.71875 28.917968 38.433593zm-352-168h112v-176h-88c-13.128906 0-24.703125 6.449219-32 16.246094-7.296875-9.796875-18.871094-16.246094-32-16.246094h-87.99999975v176zm24-160h72v144h-96v-120c0-13.230469 10.769532-24 24-24zm-136 144v-144h72c13.230469 0 24 10.769531 24 24v120zm16-128h64v16h-64zm0 32h64v16h-64zm176-16h-64v-16h64zm0 32h-64v-16h64zm-176 16h16v16h-16zm32 0h32v16h-32zm112 16h-32v-16h32zm16-16h16v16h-16zm0 0" fill="url(#a)"/></svg>