<svg height="496pt" viewBox="-80 0 496 496" width="496pt" xmlns="http://www.w3.org/2000/svg" xmlns:xlink="http://www.w3.org/1999/xlink"><linearGradient id="a" gradientUnits="userSpaceOnUse" x1="168" x2="168" y1="496" y2="0"><stop offset="0" stop-color="#9f2fff"/><stop offset="1" stop-color="#0bb1d3"/></linearGradient><path d="m295.382812 334.359375-17.734374-5.0625c26.472656-9.929687 40.007812-27.496094 40.75-28.496094l4.800781-6.402343-6.390625-4.796876c-14.054688-10.546874-23.609375-25.960937-27.183594-42.90625 17.398438-4.335937 30.375-19.976562 30.375-38.695312v-16c0-13.128906-6.449219-24.703125-16.246094-32h.246094v-24c0-74.992188-61.007812-136-136-136s-136 61.007812-136 136v24h.246094c-9.796875 7.296875-16.246094 18.871094-16.246094 32v16c0 18.71875 12.976562 34.359375 30.375 38.695312-3.574219 16.945313-13.128906 32.359376-27.183594 42.90625l-6.390625 4.796876 4.800781 6.402343c.75 1 14.277344 18.566407 40.75 28.496094l-17.734374 5.0625c-23.914063 6.824219-40.617188 28.96875-40.617188 53.839844v107.800781h336v-107.800781c0-24.871094-16.703125-47.015625-40.617188-53.839844zm-63.382812 1.640625c0 17.648438-14.351562 32-32 32-7.574219 0-14.679688-2.609375-20.34375-7.296875l38.222656-31.847656 13.9375 3.984375c.09375 1.046875.183594 2.097656.183594 3.160156zm-127.816406-3.160156 13.9375-3.984375 38.222656 31.847656c-5.664062 4.6875-12.769531 7.296875-20.34375 7.296875-17.648438 0-32-14.351562-32-32 0-1.0625.089844-2.113281.183594-3.160156zm-24.183594-180.839844v-16c0-48.519531 39.480469-88 88-88s88 39.480469 88 88v16h-8c-23.984375 0-47.503906-8.246094-66.230469-23.230469l-13.769531-11.015625-13.769531 11.007813c-18.726563 14.992187-42.246094 23.238281-66.230469 23.238281zm16 15.734375c24.800781-1.644531 48.769531-10.902344 68.230469-26.476563l3.769531-3.011718 3.769531 3.011718c19.46875 15.574219 43.4375 24.832032 68.230469 26.476563v64.265625c0 39.703125-32.296875 72-72 72s-72-32.296875-72-72zm72 152.265625c14.40625 0 27.984375-3.550781 40-9.710938v5.957032l-40 33.339844-40-33.339844v-5.957032c12.015625 6.160157 25.59375 9.710938 40 9.710938zm0 51.703125c2.480469 2.234375 5.152344 4.167969 8 5.824219v102.472656h-16v-102.472656c2.847656-1.648438 5.519531-3.589844 8-5.824219zm76.585938-51.855469-20.585938-5.878906v-14.144531c15.617188-12.914063 26.648438-31.121094 30.472656-51.832031h19.101563c3.488281 18.625 12.867187 35.855468 26.867187 48.769531-8.378906 7.992187-26.921875 21.734375-55.855468 23.085937zm59.414062-111.847656c0 13.230469-10.769531 24-24 24h-24v-64h24c13.230469 0 24 10.769531 24 24zm-16-72v16.808594c-2.585938-.527344-5.265625-.808594-8-.808594h-8v-16c0-32.359375-14.863281-61.3125-38.121094-80.398438l8.875-13.3125c27.535156 22.007813 45.246094 55.808594 45.246094 93.710938zm-58.414062-102.800781-8.875 13.304687c-15.480469-9.152344-33.464844-14.503906-52.710938-14.503906s-37.230469 5.351562-52.710938 14.503906l-8.875-13.304687c18.035157-10.847657 39.058594-17.199219 61.585938-17.199219s43.550781 6.351562 61.585938 17.199219zm-181.585938 102.800781c0-37.902344 17.710938-71.703125 45.246094-93.710938l8.875 13.3125c-23.257813 19.085938-38.121094 48.039063-38.121094 80.398438v16h-8c-2.734375 0-5.414062.28125-8 .808594zm-16 72v-16c0-13.230469 10.769531-24 24-24h24v64h-24c-13.230469 0-24-10.769531-24-24zm3.558594 88.777344c14-12.914063 23.378906-30.144532 26.867187-48.777344h19.101563c3.824218 20.703125 14.855468 38.910156 30.472656 51.832031v14.144531l-20.585938 5.878907c-28.949218-1.359375-47.492187-15.121094-55.855468-23.078125zm-19.558594 91.421875c0-17.765625 11.929688-33.574219 29.007812-38.457031l43.0625-12.300782c.777344 25.796875 21.945313 46.558594 47.929688 46.558594 2.71875 0 5.375-.296875 8-.734375v96.734375h-64v-3.3125l-4.199219-4.199219c-7.617187-7.617187-11.800781-17.726562-11.800781-28.488281s4.183594-20.871094 11.800781-28.488281l4.199219-4.199219v-19.3125h-16v12.695312c-10.320312 10.570313-16 24.496094-16 39.304688 0 13.320312 4.632812 25.902344 13.070312 36h-45.070312zm304 91.800781h-45.070312c8.4375-10.097656 13.070312-22.679688 13.070312-36 0-14.808594-5.679688-28.734375-16-39.304688v-12.695312h-16v19.3125l4.199219 4.199219c7.617187 7.617187 11.800781 17.726562 11.800781 28.488281s-4.183594 20.871094-11.800781 28.488281l-4.199219 4.199219v3.3125h-64v-96.734375c2.625.4375 5.28125.734375 8 .734375 25.984375 0 47.152344-20.761719 47.929688-46.558594l43.0625 12.300782c17.078124 4.882812 29.007812 20.699218 29.007812 38.457031zm-200-288c0-4.414062 3.585938-8 8-8s8 3.585938 8 8-3.585938 8-8 8-8-3.585938-8-8zm80 0c0-4.414062 3.585938-8 8-8s8 3.585938 8 8-3.585938 8-8 8-8-3.585938-8-8zm-64 56h16c0 8.824219 7.175781 16 16 16s16-7.175781 16-16h16c0 17.648438-14.351562 32-32 32s-32-14.351562-32-32zm0 0" fill="url(#a)"/></svg>