<svg height="489pt" viewBox="0 -20 489.952 489" width="489pt" xmlns="http://www.w3.org/2000/svg" xmlns:xlink="http://www.w3.org/1999/xlink"><linearGradient id="a" gradientUnits="userSpaceOnUse" x1="244.976" x2="244.976" y1="448.476" y2=".476"><stop offset="0" stop-color="#9f2fff"/><stop offset="1" stop-color="#0bb1d3"/></linearGradient><path d="m465.207031 183.5625 13.433594-13.421875 11.3125 11.3125-36.457031 36.453125-1.832032-16.550781c-11.65625-105.398438-100.519531-184.878907-206.6875-184.878907-5.152343 0-10.335937.183594-15.417968.558594l-1.167969-15.960937c5.464844-.398438 11.050781-.597657 16.585937-.597657 108.886719 0 200.871094 77.640626 220.230469 183.085938zm-440.464843 81.824219c19.363281 105.449219 111.347656 183.089843 220.234374 183.089843 5.550782 0 11.144532-.199218 16.589844-.609374l-1.183594-15.953126c-5.054687.378907-10.238281.5625-15.40625.5625-106.167968 0-195.03125-79.488281-206.6875-184.878906l-1.832031-16.554687-36.457031 36.457031 11.3125 11.3125zm380.234374-40.910157c0 88.222657-71.777343 160-160 160-88.222656 0-160-71.777343-160-160 0-88.222656 71.777344-160 160-160 88.222657 0 160 71.777344 160 160zm-16.410156 8h-39.589844v-16h39.589844c-4.039062-73.007812-62.582031-131.550781-135.589844-135.59375v39.59375h-16v-39.59375c-73.007812 4.042969-131.550781 62.585938-135.59375 135.59375h39.59375v16h-39.59375c4.042969 73.007813 62.585938 131.550782 135.59375 135.589844v-39.589844h16v39.589844c73.007813-4.039062 131.550782-62.582031 135.589844-135.589844zm-262.496094-137.738281c32.53125-29.832031 74.753907-46.261719 118.90625-46.261719 97.046876 0 176 78.953126 176 176 0 44.152344-16.433593 86.375-46.273437 118.902344l11.800781 10.816406c32.542969-35.496093 50.472656-81.550781 50.472656-129.71875 0-105.871093-86.136718-192-192-192-48.167968 0-94.234374 17.925782-129.71875 50.480469zm118.90625 321.738281c48.167969 0 94.222657-17.929687 129.71875-50.480468l-10.816406-11.800782c-32.527344 29.847657-74.75 46.28125-118.902344 46.28125-97.046874 0-176-78.953124-176-176 0-44.144531 16.429688-86.375 46.269532-118.914062l-11.796875-10.816406c-32.546875 35.496094-50.472657 81.570312-50.472657 129.730468 0 105.863282 86.136719 192 192 192zm22.527344-200h33.472656v16h-33.472656c-3.3125 9.289063-12.113281 16-22.527344 16-13.234374 0-24-10.769531-24-24 0-10.417968 6.710938-19.214843 16-22.527343v-65.472657h16v65.472657c6.777344 2.414062 12.113282 7.75 14.527344 14.527343zm-14.527344 8c0-4.410156-3.585937-8-8-8-4.417968 0-8 3.589844-8 8 0 4.40625 3.582032 8 8 8 4.414063 0 8-3.59375 8-8zm-43.855468-221.257812-15.6875 3.128906 3.125 15.6875 15.6875-3.128906zm-42.472656 11.25-14.785157 6.121094 6.121094 14.78125 14.785156-6.117188zm-52.777344 28.199219 8.882812 13.304687 13.308594-8.878906-8.878906-13.304688zm-21.632813 17.761719-11.308593 11.308593 11.308593 11.3125 11.3125-11.3125zm-37.957031 46.246093 13.304688 8.886719 8.886718-13.300781-13.304687-8.890625zm1.589844 30.808594-14.78125-6.128906-6.128906 14.785156 14.78125 6.128906zm-13.335938 38.566406-15.695312-3.117187-3.128906 15.695312 15.695312 3.117188zm253.984375 266.5625-3.128906-15.699219-15.6875 3.128907 3.128906 15.695312zm26.785157-8.128906 14.785156-6.128906-6.121094-14.785157-14.785156 6.128907zm30.574218-32.617187 8.882813 13.304687 13.308593-8.886719-8.878906-13.304687zm43.832032-13.34375 11.3125-11.3125-11.3125-11.3125-11.3125 11.3125zm37.960937-46.253907-13.304687-8.882812-8.886719 13.3125 13.304687 8.878906zm4.527344-45.585937-6.128907 14.785156 14.785157 6.121094 6.128906-14.785156zm26.03125-36.351563-15.695313-3.128906-3.128906 15.6875 15.699219 3.128906zm0 0" fill="url(#a)"/></svg>