<svg height="480pt" viewBox="0 -16 480 480" width="480pt" xmlns="http://www.w3.org/2000/svg" xmlns:xlink="http://www.w3.org/1999/xlink"><linearGradient id="a" gradientUnits="userSpaceOnUse" x1="240" x2="240" y1="448" y2="0"><stop offset="0" stop-color="#9f2fff"/><stop offset="1" stop-color="#0bb1d3"/></linearGradient><path d="m392 240c0 37.3125-13.792969 73.257812-38.832031 101.230469l-11.921875-10.671875c20.609375-23.023438 32.570312-52.085938 34.386718-82.558594h-23.632812v-16h23.59375c-4.019531-68.601562-58.992188-123.574219-127.59375-127.59375v23.59375h-16v-23.632812c-30.472656 1.808593-59.535156 13.777343-82.558594 34.386718l-10.671875-11.921875c27.964844-25.039062 63.917969-38.832031 101.230469-38.832031 83.816406 0 152 68.183594 152 152zm-144 135.632812v-23.632812h-16v23.59375c-68.601562-4.019531-123.574219-58.992188-127.59375-127.59375h23.59375v-16h-23.632812c1.808593-30.472656 13.769531-59.542969 34.386718-82.558594l-11.921875-10.671875c-25.039062 27.972657-38.832031 63.917969-38.832031 101.230469 0 83.816406 68.183594 152 152 152 37.3125 0 73.265625-13.792969 101.230469-38.832031l-10.671875-11.921875c-23.023438 20.609375-52.085938 32.570312-82.558594 34.386718zm0-231.632812h-16v16h16zm-104 104h16v-16h-16zm88 88h16v-16h-16zm104-104h-16v16h16zm-181.65625 82.34375 64.0625-64.0625c-1.503906-3.128906-2.40625-6.585938-2.40625-10.28125 0-13.230469 10.769531-24 24-24s24 10.769531 24 24c0 3.695312-.902344 7.152344-2.40625 10.28125l40.0625 40.0625-11.3125 11.3125-40.0625-40.0625c-3.128906 1.503906-6.585938 2.40625-10.28125 2.40625s-7.152344-.902344-10.28125-2.40625l-64.0625 64.0625zm77.65625-74.34375c0 4.414062 3.59375 8 8 8s8-3.585938 8-8-3.59375-8-8-8-8 3.585938-8 8zm-114.34375-173.65625 20.503906 20.503906c7.425782-4.953125 15.214844-9.375 23.34375-13.222656l11.488282-40.226562c2.929687-10.238282 12.421874-17.398438 23.078124-17.398438h87.859376c10.65625 0 20.148437 7.160156 23.078124 17.398438l11.488282 40.234374c8.121094 3.847657 15.917968 8.269532 23.34375 13.222657l20.503906-20.503907-40.871094-40.863281 6.839844-5.59375c15.664062-12.832031 35.441406-19.894531 55.6875-19.894531 17.28125 0 33.359375 5.078125 46.976562 13.710938l6.398438-6.398438c4.714844-4.71875 10.984375-7.3125 17.65625-7.3125 13.769531 0 24.96875 11.199219 24.96875 24.96875 0 6.574219-2.664062 13.007812-7.3125 17.65625l-8.765625 8.765625c5.132813 11.160156 8.078125 23.539063 8.078125 36.609375 0 20.246094-7.054688 40.023438-19.871094 55.6875l-5.601562 6.832031-40.871094-40.863281-19.167969 19.167969c23.511719 30.902343 37.511719 69.433593 37.511719 111.175781 0 47.03125-17.753906 89.96875-46.886719 122.535156l25.640625 85.464844h-47.035156l-30.125-45.191406c-25.59375 13.503906-54.707031 21.191406-85.59375 21.191406s-60-7.6875-85.59375-21.191406l-30.125 45.191406h-47.035156l25.640625-85.464844c-29.132813-32.566406-46.886719-75.503906-46.886719-122.535156 0-41.742188 14-80.273438 37.511719-111.175781l-19.167969-19.167969-40.871094 40.863281-5.601562-6.832031c-12.816406-15.664062-19.871094-35.441406-19.871094-55.6875 0-13.070312 2.945312-25.449219 8.078125-36.609375l-8.765625-8.765625c-4.648438-4.648438-7.3125-11.082031-7.3125-17.65625 0-13.769531 11.199219-24.96875 24.96875-24.96875 6.671875 0 12.941406 2.59375 17.65625 7.3125l6.398438 6.398438c13.617187-8.632813 29.695312-13.710938 46.976562-13.710938 20.246094 0 40.023438 7.0625 55.6875 19.878906l6.839844 5.59375zm-21.65625-50.34375c-39.695312 0-72 32.296875-72 72 0 1.472656.222656 2.910156.3125 4.375l76.0625-76.0625c-1.464844-.089844-2.902344-.3125-4.375-.3125zm-71.625 21.0625c3.496094-4.902344 7.480469-9.40625 11.882812-13.496094l-4.945312-4.941406c-1.695312-1.695312-3.945312-2.625-6.34375-2.625-4.945312 0-8.96875 4.023438-8.96875 8.96875 0 2.359375.960938 4.671875 2.625 6.34375zm10.679688 89.25 99.265624-99.257812c-4.710937-2.957032-9.808593-5.207032-15.054687-7.007813l-91.21875 91.21875c1.792969 5.246094 4.050781 10.335937 7.007813 15.046875zm105.53125 268.390625c-8.832032-5.695313-17.171876-12.101563-24.890626-19.183594l-16.941406 56.480469h16.964844zm240.660156 37.296875-16.941406-56.480469c-7.710938 7.082031-16.046876 13.488281-24.890626 19.183594l24.867188 37.296875zm26.753906-192c0-92.632812-75.359375-168-168-168s-168 75.367188-168 168 75.359375 168 168 168 168-75.367188 168-168zm35.742188-216.433594c4.402343 4.089844 8.394531 8.59375 11.890624 13.488282l5.75-5.75c1.65625-1.664063 2.617188-3.976563 2.617188-6.335938 0-4.945312-4.023438-8.96875-8.96875-8.96875-2.398438 0-4.648438.929688-6.34375 2.625zm-59.742188-7.566406c-1.472656 0-2.910156.222656-4.375.3125l76.0625 76.0625c.089844-1.464844.3125-2.902344.3125-4.375 0-39.703125-32.304688-72-72-72zm-38.320312 11.054688 99.265624 99.257812c2.957032-4.710938 5.207032-9.800781 7.007813-15.046875l-91.21875-91.21875c-5.246094 1.792969-10.34375 4.050781-15.054687 7.007813zm9.207031 69.371093c7.625 6.109375 14.785156 12.789063 21.351562 20.023438l18.113281-18.113281-20.6875-20.6875zm-174.566407-30.433593c18.726563-6.449219 38.792969-9.992188 59.679688-9.992188s40.953125 3.542969 59.679688 9.992188l-8.054688-28.191407c-.976562-3.417969-4.136719-5.800781-7.695312-5.800781h-87.859376c-3.550781 0-6.71875 2.382812-7.695312 5.808594zm-73.976562 11.664062-20.6875 20.6875 18.113281 18.113281c6.566407-7.234375 13.71875-13.914062 21.351563-20.023437zm0 0" fill="url(#a)"/></svg>